<svg xmlns="http://www.w3.org/2000/svg" xmlns:xlink="http://www.w3.org/1999/xlink" width="575.98" height="526.7" viewBox="0 0 575.98 526.7">

  <defs>
    <style>
      .cls-1 {
        fill: #fff;
      }

      .cls-2 {
        fill: #d1d1d1;
      }

      .cls-3 {
        fill: #fff915;
      }

      .cls-4, .cls-5 {
        fill: none;
        stroke: #fff;
        stroke-miterlimit: 10;
      }

      .cls-4 {
        stroke-width: 1.5px;
      }
    </style>
  </defs>
  <title>wiredeltaemoji</title>
  <g id="wiredelta_superhero">
    <image width="212" height="376" transform="translate(195 61.73)" xlink:href="src/img/superhero.png"/>
  </g>
  <g id="thunderbolt_right_shoe" class="thunderbolt" >
    <polygon class="cls-1" points="281.28 526.7 277.4 463.94 286.08 474 288.65 430.84 290.43 482.91 282.92 474.06 281.28 526.7"/>
  </g>
  <g id="thunderbolt_left_shoe" class="thunderbolt" >
    <polygon class="cls-1" points="243.28 466.7 239.4 403.94 248.08 414 250.66 370.84 252.43 422.91 244.92 414.06 243.28 466.7"/>
  </g>
  <g id="cloud_right" class="clouds">
    <g>
      <circle class="cls-1" cx="1706.29" cy="351.5" r="18.86" transform="translate(-1217.73 313.4) rotate(-12.24)"/>
      <circle class="cls-1" cx="1687.8" cy="368.58" r="18.86" transform="translate(-992.45 1172.4) rotate(-42.18)"/>
      <circle class="cls-1" cx="1664.27" cy="361.32" r="18.86" transform="translate(-1082.02 978.36) rotate(-35.54)"/>
      <circle class="cls-1" cx="1639.64" cy="363.22" r="18.86" transform="translate(-1087.71 964.39) rotate(-35.54)"/>
      <circle class="cls-1" cx="1651.08" cy="338.13" r="18.86" transform="translate(-1159.24 716.58) rotate(-26.52)"/>
      <path class="cls-1" d="M1607.54,361.1a18.85,18.85,0,1,1,2.47,26.55A18.85,18.85,0,0,1,1607.54,361.1Z" transform="translate(-1182 -56.27)"/>
      <circle class="cls-1" cx="1620.51" cy="352.4" r="18.86" transform="translate(-1168.83 704.43) rotate(-26.52)"/>
      <circle class="cls-1" cx="1593.76" cy="361.2" r="15.26" transform="translate(-1219.25 203.23) rotate(-9.2)"/>
      <circle class="cls-1" cx="1572.95" cy="361.96" r="10.48" transform="translate(-1208.81 91.33) rotate(-5.33)"/>
      <path class="cls-1" d="M1553.48,357.34a7.4,7.4,0,1,1,1,10.42A7.4,7.4,0,0,1,1553.48,357.34Z" transform="translate(-1182 -56.27)"/>
      <circle class="cls-1" cx="1682.33" cy="339.55" r="18.86" transform="translate(-981.78 1148.66) rotate(-41.69)"/>
      <path class="cls-2" d="M1718.05,363.59s7.31-7.18,4.72-16.44-14.51-14.65-23.26-11.27c0,0-3.3-11.12-14-13.63-8.77-2.06-15.45,4-18,8.63,0,0,8.39-8.71,17.83-4.55,11.92,5.27,10.62,15.42,10.62,15.42s9.23-5.32,18.23,1.19S1720.46,359.3,1718.05,363.59Z" transform="translate(-1182 -56.27)"/>
      <path class="cls-2" d="M1696.23,383s-5.61,4.77-14.58,1.36c-7.59-2.89-9.4-8.64-9.4-8.64s-6.86,5.36-14.75,1c0,0,9.79,2.24,15-5.73,0,0,3.07,9,10.86,11.53S1696.23,383,1696.23,383Z" transform="translate(-1182 -56.27)"/>
      <path class="cls-2" d="M1698.29,354s-6.43,7.46-15.57,1.32-5.86-15.3-5.86-15.3-5.47,7.79,1.22,15.3S1695.67,360.52,1698.29,354Z" transform="translate(-1182 -56.27)"/>
      <path class="cls-2" d="M1677,353.55s-7.29,3.8-12.48-3.8a11.14,11.14,0,0,1,.19-13.68s-6.66,4.35-3.79,12.24S1673,357.77,1677,353.55Z" transform="translate(-1182 -56.27)"/>
      <path class="cls-2" d="M1657.66,367.32s-6,7-14.59,1.24-5.5-14.36-5.5-14.36-5.13,7.32,1.15,14.35S1655.21,373.39,1657.66,367.32Z" transform="translate(-1182 -56.27)"/>
      <path class="cls-2" d="M1637.69,366.85s-6.84,3.56-11.71-3.55a10.47,10.47,0,0,1,.18-12.84,9.77,9.77,0,0,0-3.55,11.49C1625.29,369.3,1633.91,370.81,1637.69,366.85Z" transform="translate(-1182 -56.27)"/>
      <path class="cls-2" d="M1612.22,363.63a6.52,6.52,0,0,1-8.23,3.18,7.55,7.55,0,0,1-5.61-7.37,7,7,0,0,0,3.09,8.1C1606.27,370.53,1611.83,367.55,1612.22,363.63Z" transform="translate(-1182 -56.27)"/>
      <path class="cls-2" d="M1600.59,366.74a5.45,5.45,0,0,1-7.37-.08,6.31,6.31,0,0,1-2.07-7.46,5.88,5.88,0,0,0-.11,7.25C1593.83,370.25,1599.07,369.66,1600.59,366.74Z" transform="translate(-1182 -56.27)"/>
      <path class="cls-2" d="M1626.07,389.56s-8.93,2.8-15.76-3.58-5.6-12.22-5.6-12.22S1606.47,387.71,1626.07,389.56Z" transform="translate(-1182 -56.27)"/>
      <path class="cls-2" d="M1633.93,337.23s-3-7.27,8.74-14C1642.67,323.22,1634.63,330,1633.93,337.23Z" transform="translate(-1182 -56.27)"/>
      <path class="cls-2" d="M1602.52,352.37a10.55,10.55,0,0,0-9.53-4.3c-6.59.42-10.85,4.25-12.3,8.61C1580.69,356.68,1590.15,344,1602.52,352.37Z" transform="translate(-1182 -56.27)"/>
      <path class="cls-2" d="M1590.72,374.41s-6-.16-9.53-7.18c0,0-5.45,5.75-11.7,3.39a13.22,13.22,0,0,0,12-6.18S1582.76,370.69,1590.72,374.41Z" transform="translate(-1182 -56.27)"/>
      <path class="cls-2" d="M1572.81,353a10.19,10.19,0,0,0-8.62,5.46,7.86,7.86,0,0,0-5.39-2.48c-3.53-.21-5.48,3.14-5.94,4.92,0,0,1.83-3.65,5.57-3.67a8.42,8.42,0,0,1,6.13,3.1S1567.52,353.73,1572.81,353Z" transform="translate(-1182 -56.27)"/>
    </g>
  </g>
  <g id="cloud_left" class="clouds">
    <g>
      <circle class="cls-1" cx="1416.29" cy="88.5" r="18.86" transform="translate(-1168.57 245.95) rotate(-12.24)"/>
      <circle class="cls-1" cx="1397.8" cy="105.58" r="18.86" transform="translate(-890.96 909.59) rotate(-42.18)"/>
      <circle class="cls-1" cx="1374.27" cy="98.32" r="18.86" transform="translate(-983.17 760.81) rotate(-35.54)"/>
      <circle class="cls-1" cx="1349.64" cy="100.22" r="18.86" transform="translate(-988.87 746.85) rotate(-35.54)"/>
      <circle class="cls-1" cx="1361.08" cy="75.13" r="18.86" transform="translate(-1072.32 559.41) rotate(-26.52)"/>
      <path class="cls-1" d="M1317.54,98.1a18.85,18.85,0,1,1,2.47,26.55A18.85,18.85,0,0,1,1317.54,98.1Z" transform="translate(-1182 -56.27)"/>
      <circle class="cls-1" cx="1330.51" cy="89.4" r="18.86" transform="translate(-1081.91 547.26) rotate(-26.52)"/>
      <circle class="cls-1" cx="1303.76" cy="98.2" r="15.26" transform="translate(-1180.93 153.47) rotate(-9.2)"/>
      <circle class="cls-1" cx="1282.95" cy="98.96" r="10.48" transform="translate(-1185.65 63.27) rotate(-5.33)"/>
      <path class="cls-1" d="M1263.48,94.34a7.4,7.4,0,1,1,1,10.42A7.4,7.4,0,0,1,1263.48,94.34Z" transform="translate(-1182 -56.27)"/>
      <circle class="cls-1" cx="1392.33" cy="76.55" r="18.86" transform="translate(-880.3 889.17) rotate(-41.69)"/>
      <path class="cls-2" d="M1428.05,100.59s7.31-7.18,4.72-16.44-14.51-14.65-23.26-11.27c0,0-3.3-11.12-14-13.63-8.77-2.06-15.45,4-18,8.63,0,0,8.39-8.71,17.83-4.55C1407.29,68.6,1406,78.75,1406,78.75s9.23-5.32,18.23,1.19S1430.46,96.3,1428.05,100.59Z" transform="translate(-1182 -56.27)"/>
      <path class="cls-2" d="M1406.23,120s-5.61,4.77-14.58,1.36c-7.59-2.89-9.4-8.64-9.4-8.64s-6.86,5.36-14.75,1c0,0,9.79,2.24,15-5.73,0,0,3.07,9,10.86,11.53S1406.23,120,1406.23,120Z" transform="translate(-1182 -56.27)"/>
      <path class="cls-2" d="M1408.29,91s-6.43,7.46-15.57,1.32-5.86-15.3-5.86-15.3-5.47,7.79,1.22,15.3S1405.67,97.52,1408.29,91Z" transform="translate(-1182 -56.27)"/>
      <path class="cls-2" d="M1387,90.55s-7.29,3.8-12.48-3.8a11.14,11.14,0,0,1,.19-13.68s-6.66,4.35-3.79,12.24S1383,94.77,1387,90.55Z" transform="translate(-1182 -56.27)"/>
      <path class="cls-2" d="M1367.66,104.32s-6,7-14.59,1.24-5.5-14.36-5.5-14.36-5.13,7.32,1.15,14.35S1365.21,110.39,1367.66,104.32Z" transform="translate(-1182 -56.27)"/>
      <path class="cls-2" d="M1347.69,103.85s-6.84,3.56-11.71-3.55a10.47,10.47,0,0,1,.18-12.84A9.77,9.77,0,0,0,1332.61,99C1335.29,106.3,1343.91,107.81,1347.69,103.85Z" transform="translate(-1182 -56.27)"/>
      <path class="cls-2" d="M1322.22,100.63a6.52,6.52,0,0,1-8.23,3.18,7.55,7.55,0,0,1-5.61-7.37,7,7,0,0,0,3.09,8.1C1316.27,107.53,1321.83,104.55,1322.22,100.63Z" transform="translate(-1182 -56.27)"/>
      <path class="cls-2" d="M1310.59,103.74a5.45,5.45,0,0,1-7.37-.08,6.31,6.31,0,0,1-2.07-7.46,5.88,5.88,0,0,0-.11,7.25C1303.83,107.25,1309.07,106.66,1310.59,103.74Z" transform="translate(-1182 -56.27)"/>
      <path class="cls-2" d="M1336.07,126.56s-8.93,2.8-15.76-3.58-5.6-12.22-5.6-12.22S1316.47,124.71,1336.07,126.56Z" transform="translate(-1182 -56.27)"/>
      <path class="cls-2" d="M1343.93,74.23s-3-7.27,8.74-14C1352.67,60.22,1344.63,67,1343.93,74.23Z" transform="translate(-1182 -56.27)"/>
      <path class="cls-2" d="M1312.52,89.37a10.55,10.55,0,0,0-9.53-4.3c-6.59.42-10.85,4.25-12.3,8.61C1290.69,93.68,1300.15,81,1312.52,89.37Z" transform="translate(-1182 -56.27)"/>
      <path class="cls-2" d="M1300.72,111.41s-6-.16-9.53-7.18c0,0-5.45,5.75-11.7,3.39a13.22,13.22,0,0,0,12-6.18S1292.76,107.69,1300.72,111.41Z" transform="translate(-1182 -56.27)"/>
      <path class="cls-2" d="M1282.81,90a10.19,10.19,0,0,0-8.62,5.46A7.86,7.86,0,0,0,1268.8,93c-3.53-.21-5.48,3.14-5.94,4.92,0,0,1.83-3.65,5.57-3.67a8.42,8.42,0,0,1,6.13,3.1S1277.52,90.73,1282.81,90Z" transform="translate(-1182 -56.27)"/>
    </g>
  </g>
  <g id="stars">
    <polygon class="cls-3" points="470.5 209.18 472.86 213.97 478.15 214.74 474.33 218.47 475.23 223.74 470.5 221.25 465.77 223.74 466.67 218.47 462.85 214.74 468.14 213.97 470.5 209.18"/>
    <polygon class="cls-3" points="75.5 84.18 77.86 88.97 83.15 89.74 79.33 93.47 80.23 98.74 75.5 96.25 70.77 98.74 71.67 93.47 67.85 89.74 73.14 88.97 75.5 84.18"/>
    <polygon class="cls-3" points="568.33 339.66 570.7 344.45 575.98 345.22 572.16 348.95 573.06 354.22 568.33 351.73 563.6 354.22 564.51 348.95 560.68 345.22 565.97 344.45 568.33 339.66"/>
    <polygon class="cls-3" points="403.5 364.18 405.86 368.97 411.15 369.74 407.33 373.47 408.23 378.74 403.5 376.25 398.77 378.74 399.67 373.47 395.85 369.74 401.14 368.97 403.5 364.18"/>
  </g>
  <g id="power_long_line" class="line">
    <line class="cls-4" x1="177" y1="157.73" x2="18" y2="275.73"/>
  </g>
  <g id="power_medium_line" class="line">
    <line class="cls-4" x1="166" y1="130.23" y2="130.23"/>
  </g>
  <g id="power_short_line" class="line">
    <line class="cls-5" x1="165" y1="145.73" x2="53" y2="181.73"/>
  </g>
</svg>
